<svg width="48" height="48" viewBox="0 0 48 48" fill="none" xmlns="http://www.w3.org/2000/svg">
<circle cx="24" cy="24" r="24" fill="#ED3438"/>
<mask id="mask0_0_1039" style="mask-type:alpha" maskUnits="userSpaceOnUse" x="12" y="12" width="24" height="24">
<rect x="12" y="12" width="24" height="24" fill="#D9D9D9"/>
</mask>
<g mask="url(#mask0_0_1039)">
<path d="M24 21C24.2833 21 24.5208 20.9042 24.7125 20.7125C24.9042 20.5208 25 20.2833 25 20C25 19.7167 24.9042 19.4792 24.7125 19.2875C24.5208 19.0958 24.2833 19 24 19C23.7167 19 23.4792 19.0958 23.2875 19.2875C23.0958 19.4792 23 19.7167 23 20C23 20.2833 23.0958 20.5208 23.2875 20.7125C23.4792 20.9042 23.7167 21 24 21ZM24 27C23.35 27 22.7625 26.8208 22.2375 26.4625C21.7125 26.1042 21.3333 25.6333 21.1 25.05C21.0167 25.05 20.9417 25.0542 20.875 25.0625C20.8083 25.0708 20.7333 25.075 20.65 25.075C19.7833 25.075 19.0417 24.7667 18.425 24.15C17.8083 23.5333 17.5 22.7917 17.5 21.925C17.5 21.575 17.5583 21.2375 17.675 20.9125C17.7917 20.5875 17.9667 20.2833 18.2 20C17.9833 19.7167 17.8167 19.4125 17.7 19.0875C17.5833 18.7625 17.525 18.425 17.525 18.075C17.525 17.2083 17.8292 16.4667 18.4375 15.85C19.0458 15.2333 19.7833 14.925 20.65 14.925C20.7333 14.925 20.8083 14.9292 20.875 14.9375C20.9417 14.9458 21.0167 14.95 21.1 14.95C21.3333 14.3667 21.7125 13.8958 22.2375 13.5375C22.7625 13.1792 23.35 13 24 13C24.65 13 25.2375 13.1792 25.7625 13.5375C26.2875 13.8958 26.6667 14.3667 26.9 14.95C26.9833 14.95 27.0583 14.9458 27.125 14.9375C27.1917 14.9292 27.2667 14.925 27.35 14.925C28.2167 14.925 28.9542 15.2333 29.5625 15.85C30.1708 16.4667 30.475 17.2083 30.475 18.075C30.475 18.425 30.4208 18.7625 30.3125 19.0875C30.2042 19.4125 30.0333 19.7167 29.8 20C30.0167 20.2833 30.1833 20.5875 30.3 20.9125C30.4167 21.2375 30.475 21.575 30.475 21.925C30.475 22.7917 30.1708 23.5333 29.5625 24.15C28.9542 24.7667 28.2167 25.075 27.35 25.075C27.2667 25.075 27.1917 25.0708 27.125 25.0625C27.0583 25.0542 26.9833 25.05 26.9 25.05C26.6667 25.6333 26.2875 26.1042 25.7625 26.4625C25.2375 26.8208 24.65 27 24 27ZM24 34C24 32.7667 24.2375 31.6042 24.7125 30.5125C25.1875 29.4208 25.8333 28.4667 26.65 27.65C27.4667 26.8333 28.4208 26.1875 29.5125 25.7125C30.6042 25.2375 31.7667 25 33 25C33 26.2333 32.7625 27.3958 32.2875 28.4875C31.8125 29.5792 31.1667 30.5333 30.35 31.35C29.5333 32.1667 28.5792 32.8125 27.4875 33.2875C26.3958 33.7625 25.2333 34 24 34ZM26.45 31.55C27.4 31.2 28.2333 30.6667 28.95 29.95C29.6667 29.2333 30.2 28.4 30.55 27.45C29.6 27.8 28.7667 28.3333 28.05 29.05C27.3333 29.7667 26.8 30.6 26.45 31.55ZM24 34C24 32.7667 23.7625 31.6042 23.2875 30.5125C22.8125 29.4208 22.1667 28.4667 21.35 27.65C20.5333 26.8333 19.5792 26.1875 18.4875 25.7125C17.3958 25.2375 16.2333 25 15 25C15 26.2333 15.2375 27.3958 15.7125 28.4875C16.1875 29.5792 16.8333 30.5333 17.65 31.35C18.4667 32.1667 19.4208 32.8125 20.5125 33.2875C21.6042 33.7625 22.7667 34 24 34ZM21.55 31.55C20.6 31.2 19.7667 30.6667 19.05 29.95C18.3333 29.2333 17.8 28.4 17.45 27.45C18.4 27.8 19.2333 28.3333 19.95 29.05C20.6667 29.7667 21.2 30.6 21.55 31.55ZM27.35 23.075C27.6667 23.075 27.9375 22.9625 28.1625 22.7375C28.3875 22.5125 28.5 22.2417 28.5 21.925C28.5 21.6917 28.4375 21.4875 28.3125 21.3125C28.1875 21.1375 28.025 21 27.825 20.9L26.95 20.475C26.9167 20.6583 26.8667 20.8375 26.8 21.0125C26.7333 21.1875 26.6583 21.35 26.575 21.5C26.4917 21.65 26.3917 21.7917 26.275 21.925C26.1583 22.0583 26.0333 22.1833 25.9 22.3L26.7 22.875C26.7833 22.9417 26.8792 22.9917 26.9875 23.025C27.0958 23.0583 27.2167 23.075 27.35 23.075ZM26.95 19.525L27.825 19.1C28.025 19 28.1833 18.8583 28.3 18.675C28.4167 18.4917 28.475 18.2917 28.475 18.075C28.475 17.7583 28.3667 17.4875 28.15 17.2625C27.9333 17.0375 27.6667 16.925 27.35 16.925C27.2167 16.925 27.1 16.9417 27 16.975C26.9 17.0083 26.8 17.0583 26.7 17.125L25.875 17.7C26.0083 17.8167 26.1375 17.9417 26.2625 18.075C26.3875 18.2083 26.4917 18.35 26.575 18.5C26.6583 18.65 26.7333 18.8125 26.8 18.9875C26.8667 19.1625 26.9167 19.3417 26.95 19.525ZM22.975 17.2C23.1417 17.1333 23.3083 17.0833 23.475 17.05C23.6417 17.0167 23.8167 17 24 17C24.1833 17 24.3583 17.0167 24.525 17.05C24.6917 17.0833 24.8583 17.1333 25.025 17.2L25.15 16.1C25.1833 15.8 25.0792 15.5417 24.8375 15.325C24.5958 15.1083 24.3167 15 24 15C23.6833 15 23.4042 15.1083 23.1625 15.325C22.9208 15.5417 22.8167 15.8 22.85 16.1L22.975 17.2ZM24 25C24.3167 25 24.5958 24.8917 24.8375 24.675C25.0792 24.4583 25.1833 24.2 25.15 23.9L25.025 22.8C24.8583 22.8667 24.6917 22.9167 24.525 22.95C24.3583 22.9833 24.1833 23 24 23C23.8167 23 23.6417 22.9833 23.475 22.95C23.3083 22.9167 23.1417 22.8667 22.975 22.8L22.85 23.9C22.8167 24.2 22.9208 24.4583 23.1625 24.675C23.4042 24.8917 23.6833 25 24 25ZM21.05 19.525C21.0833 19.3417 21.1333 19.1625 21.2 18.9875C21.2667 18.8125 21.3417 18.65 21.425 18.5C21.5083 18.35 21.6083 18.2083 21.725 18.075C21.8417 17.9417 21.9667 17.8167 22.1 17.7L21.3 17.125C21.2167 17.0583 21.1208 17.0083 21.0125 16.975C20.9042 16.9417 20.7833 16.925 20.65 16.925C20.3333 16.925 20.0625 17.0375 19.8375 17.2625C19.6125 17.4875 19.5 17.7583 19.5 18.075C19.5 18.2917 19.5625 18.4917 19.6875 18.675C19.8125 18.8583 19.975 19 20.175 19.1L21.05 19.525ZM20.65 23.05C20.7833 23.05 20.9 23.0375 21 23.0125C21.1 22.9875 21.2 22.9333 21.3 22.85L22.125 22.3C21.9917 22.1833 21.8625 22.0583 21.7375 21.925C21.6125 21.7917 21.5083 21.65 21.425 21.5C21.3417 21.35 21.2667 21.1875 21.2 21.0125C21.1333 20.8375 21.0833 20.6583 21.05 20.475L20.175 20.9C19.975 21 19.8167 21.1417 19.7 21.325C19.5833 21.5083 19.525 21.7083 19.525 21.925C19.5417 22.2417 19.6542 22.5083 19.8625 22.725C20.0708 22.9417 20.3333 23.05 20.65 23.05Z" fill="white"/>
</g>
</svg>
