<svg width="48" height="48" viewBox="0 0 48 48" fill="none" xmlns="http://www.w3.org/2000/svg">
<g clip-path="url(#clip0_68_126)">
<path d="M24 48C37.2548 48 48 37.2548 48 24C48 10.7452 37.2548 0 24 0C10.7452 0 0 10.7452 0 24C0 37.2548 10.7452 48 24 48Z" fill="#ED3438"/>
<mask id="mask0_68_126" style="mask-type:alpha" maskUnits="userSpaceOnUse" x="9" y="12" width="8" height="8">
<path d="M16.6588 12.6621H9.58105V19.7398H16.6588V12.6621Z" fill="#D9D9D9"/>
</mask>
<g mask="url(#mask0_68_126)">
</g>
<g clip-path="url(#clip1_68_126)">
<path d="M12.8356 24.066L11.452 21.9602H18.8719V8.10184H27.9978V21.9602H35.4176L34.034 24.066H35.0558L37.0004 21.1065H28.8518V7.24805H18.0178V21.1065H9.86914L11.8138 24.066H12.8356Z" fill="white"/>
<path d="M26.1529 36.0605L23.435 40.1969L20.7171 36.0605H19.6953L23.435 41.7519L27.1747 36.0605H26.1529Z" fill="white"/>
<path d="M14.2699 34.3759C13.4058 33.9267 12.7286 33.2987 12.2384 32.4919C11.7479 31.6853 11.5029 30.7699 11.5029 29.7456C11.5029 28.7216 11.7479 27.8061 12.2384 26.9993C12.7286 26.1927 13.4058 25.5645 14.2699 25.1152C15.134 24.666 16.105 24.4414 17.1827 24.4414C18.1731 24.4414 19.0563 24.6153 19.8332 24.9631C20.6099 25.3109 21.2507 25.8134 21.7556 26.4703L19.5857 28.3978C18.9545 27.6057 18.2117 27.2095 17.3575 27.2095C16.6388 27.2095 16.0613 27.4391 15.6243 27.8979C15.1875 28.3568 14.969 28.9728 14.969 29.7456C14.969 30.5187 15.1875 31.1346 15.6243 31.5935C16.0613 32.0524 16.6388 32.2818 17.3575 32.2818C18.2117 32.2818 18.9545 31.8858 19.5857 31.0934L21.7556 33.021C21.2507 33.6781 20.6099 34.1803 19.8332 34.5282C19.0563 34.876 18.1731 35.0499 17.1827 35.0499C16.105 35.0497 15.134 34.8251 14.2699 34.3759Z" fill="white"/>
<path d="M24.9153 34.3686C24.0414 33.9147 23.357 33.2842 22.8618 32.4774C22.3668 31.6708 22.1191 30.7601 22.1191 29.7456C22.1191 28.7311 22.3668 27.8206 22.8618 27.0138C23.357 26.2072 24.0414 25.5768 24.9153 25.1225C25.7891 24.6685 26.7744 24.4414 27.8718 24.4414C28.9688 24.4414 29.9543 24.6685 30.8281 25.1225C31.7019 25.5768 32.3865 26.2072 32.8816 27.0138C33.3767 27.8206 33.6243 28.7311 33.6243 29.7456C33.6243 30.7601 33.3767 31.6708 32.8816 32.4774C32.3864 33.2843 31.7019 33.9147 30.8281 34.3686C29.9543 34.8226 28.9687 35.0497 27.8718 35.0497C26.7744 35.0497 25.7891 34.8227 24.9153 34.3686ZM29.0296 31.9703C29.374 31.7626 29.6485 31.468 29.8524 31.0861C30.0563 30.7046 30.1583 30.2578 30.1583 29.7456C30.1583 29.2337 30.0563 28.7868 29.8524 28.4051C29.6485 28.0235 29.3741 27.7289 29.0296 27.5211C28.6849 27.3134 28.2988 27.2095 27.8718 27.2095C27.4445 27.2095 27.0584 27.3135 26.7139 27.5211C26.3691 27.7289 26.0949 28.0236 25.8911 28.4051C25.6871 28.7869 25.5852 29.2337 25.5852 29.7456C25.5852 30.2578 25.6871 30.7046 25.8911 31.0861C26.0949 31.468 26.3691 31.7626 26.7139 31.9703C27.0584 32.1781 27.4444 32.2817 27.8718 32.2817C28.2988 32.2817 28.6849 32.1781 29.0296 31.9703Z" fill="white"/>
<path d="M36.7251 33.9776V34.8678H33.9826V34.1625L35.2195 33.0242C35.3269 32.9237 35.3986 32.8377 35.4346 32.7663C35.4704 32.695 35.4882 32.6253 35.4882 32.5572C35.4882 32.4728 35.4597 32.4072 35.4027 32.3601C35.3457 32.3132 35.2634 32.2896 35.1559 32.2896C35.0515 32.2896 34.9538 32.3171 34.8626 32.3724C34.7713 32.4274 34.7013 32.5054 34.6524 32.6058L33.7822 32.1729C33.9126 31.9296 34.1031 31.7375 34.3542 31.5964C34.6051 31.4553 34.9082 31.3848 35.2634 31.3848C35.5339 31.3848 35.7734 31.4286 35.982 31.5161C36.1906 31.6037 36.3535 31.7286 36.4709 31.8907C36.5882 32.0529 36.6468 32.2393 36.6468 32.4501C36.6468 32.6382 36.6069 32.8142 36.5272 32.9779C36.4473 33.1418 36.2916 33.3274 36.0603 33.535L35.5714 33.9776H36.7251Z" fill="white"/>
<path d="M19.8301 20.251C19.8303 20.2557 19.8311 20.2613 19.8313 20.2661C19.9319 21.2354 19.4761 23.0617 20.4444 24.0717C21.2021 24.8631 22.1055 24.7215 22.5849 24.6222C22.342 23.007 20.7337 21.2 20.7337 21.2C20.7337 21.2 22.4147 22.4202 23.1832 24.2357C23.3766 23.7156 23.6551 22.7169 23.2918 21.9766C22.6681 20.7051 20.7202 20.6399 19.8301 20.251Z" fill="white"/>
<path d="M26.2176 20.4561C26.2147 20.4579 26.2116 20.4604 26.2087 20.4623C25.6422 20.8766 24.3408 21.2557 24.0639 22.2244C23.8465 22.9827 24.2624 23.4931 24.4981 23.7552C25.4147 23.0182 25.9552 21.3623 25.9552 21.3623C25.9552 21.3623 25.8061 22.8504 24.9557 23.987C25.3494 23.9186 26.0716 23.7294 26.4003 23.2349C26.9648 22.3856 26.2986 21.1507 26.2176 20.4561Z" fill="white"/>
</g>
</g>
<defs>
<clipPath id="clip0_68_126">
<rect width="48" height="48" fill="white"/>
</clipPath>
<clipPath id="clip1_68_126">
<rect width="27.1312" height="34.5039" fill="white" transform="translate(9.86914 7.24805)"/>
</clipPath>
</defs>
</svg>
