<svg width="72" height="65" viewBox="0 0 72 65" fill="none" xmlns="http://www.w3.org/2000/svg">
<circle cx="36.5" cy="32.5" r="31.5" fill="#37B459"/>
<mask id="mask0_0_1060" style="mask-type:alpha" maskUnits="userSpaceOnUse" x="19" y="16" width="35" height="35">
<rect x="19" y="16" width="34.0723" height="34.0723" fill="#D9D9D9"/>
</mask>
<g mask="url(#mask0_0_1060)">
<path d="M24.6432 45.8134V41.5544H29.0442L25.424 29.7001C24.7852 29.3451 24.2587 28.8246 23.8446 28.1384C23.4305 27.4522 23.2235 26.7187 23.2235 25.9379C23.2235 24.7549 23.6376 23.7492 24.4657 22.9211C25.2939 22.093 26.2995 21.6789 27.4825 21.6789C28.4053 21.6789 29.2276 21.9451 29.9492 22.4775C30.6709 23.0098 31.1737 23.6901 31.4576 24.5182H36.0006V23.0986C36.0006 22.6963 36.1367 22.3591 36.4088 22.087C36.6809 21.8149 37.018 21.6789 37.4203 21.6789C37.6332 21.6789 37.8403 21.7262 38.0414 21.8209C38.2425 21.9155 38.4141 22.0575 38.556 22.2468L40.9695 19.9753C41.1824 19.7623 41.4368 19.6263 41.7326 19.5671C42.0283 19.508 42.3182 19.5494 42.6021 19.6913L48.1389 22.2468C48.4228 22.3887 48.618 22.5958 48.7245 22.8679C48.8309 23.14 48.825 23.4062 48.7067 23.6664C48.5648 23.9504 48.3577 24.1337 48.0856 24.2166C47.8135 24.2994 47.5473 24.2816 47.2871 24.1633L42.1762 21.8209L38.84 24.9441V26.9317L42.1762 29.984L47.2871 27.6415C47.5473 27.5232 47.8194 27.5114 48.1034 27.606C48.3873 27.7007 48.5884 27.8781 48.7067 28.1384C48.8487 28.4224 48.8605 28.6945 48.7422 28.9547C48.6239 29.215 48.4228 29.4161 48.1389 29.5581L42.6021 32.1845C42.3182 32.3265 42.0283 32.3679 41.7326 32.3087C41.4368 32.2496 41.1824 32.1135 40.9695 31.9006L38.556 29.6291C38.4141 29.771 38.2425 29.9012 38.0414 30.0195C37.8403 30.1378 37.6332 30.1969 37.4203 30.1969C37.018 30.1969 36.6809 30.0609 36.4088 29.7888C36.1367 29.5167 36.0006 29.1795 36.0006 28.7773V27.3576H31.4576C31.3867 27.5469 31.3098 27.7243 31.2269 27.89C31.1441 28.0556 31.0317 28.2331 30.8898 28.4224L37.9882 41.5544H43.099V45.8134H24.6432ZM27.4825 27.3576C27.8848 27.3576 28.222 27.2215 28.4941 26.9494C28.7662 26.6773 28.9022 26.3402 28.9022 25.9379C28.9022 25.5357 28.7662 25.1985 28.4941 24.9264C28.222 24.6543 27.8848 24.5182 27.4825 24.5182C27.0803 24.5182 26.7431 24.6543 26.471 24.9264C26.1989 25.1985 26.0629 25.5357 26.0629 25.9379C26.0629 26.3402 26.1989 26.6773 26.471 26.9494C26.7431 27.2215 27.0803 27.3576 27.4825 27.3576ZM31.9545 41.5544H34.7229L28.6183 30.1969H28.4763L31.9545 41.5544Z" fill="white"/>
</g>
</svg>
