<svg width="48" height="48" viewBox="0 0 48 48" fill="none" xmlns="http://www.w3.org/2000/svg">
<g clip-path="url(#clip0_68_126)">
<path d="M24 48C37.2548 48 48 37.2548 48 24C48 10.7452 37.2548 0 24 0C10.7452 0 0 10.7452 0 24C0 37.2548 10.7452 48 24 48Z" fill="#ED3438"/>
<path d="M22.1532 10.043C21.6188 10.1827 21.2219 10.5529 21.0445 11.0784L20.9847 11.2514L20.9736 12.4487L20.9625 13.646L17.9914 13.6571L15.0202 13.6682L14.8761 13.7369C14.6987 13.8212 14.5812 13.921 14.4881 14.0673C14.3395 14.3023 14.3439 14.238 14.3439 15.8966C14.3439 17.5662 14.3395 17.5085 14.4969 17.7524C14.6034 17.9165 14.7874 18.054 14.9825 18.1138C15.0912 18.1471 15.1887 18.1582 15.3883 18.1582H15.6521V19.2424V20.3289L15.4925 20.3621C14.8872 20.4907 14.6366 20.4708 13.8451 20.2357C13.2531 20.0584 12.9848 20.0251 12.7475 20.1027C12.5967 20.1515 12.4216 20.3111 12.3418 20.4708C12.1732 20.8167 12.1511 21.4353 12.2841 22.0872C12.4327 22.8211 12.8251 23.5284 13.324 23.963C13.4038 24.0317 13.4703 24.0982 13.4681 24.1115C13.4681 24.1226 13.3528 24.167 13.2131 24.2069C11.9027 24.5838 10.7165 25.4574 9.95597 26.6015C9.45931 27.3465 9.15998 28.1292 9.00698 29.0782C8.96929 29.3044 8.96707 29.5549 8.96707 32.4152C8.96707 35.9229 8.95155 35.6347 9.15332 36.0626C9.37505 36.5327 9.74533 36.8786 10.2287 37.0715C10.5746 37.2112 10.395 37.2045 14.2619 37.2045H17.7918L17.8849 37.3553C18.0823 37.6768 18.3949 37.9562 18.7452 38.1247C19.08 38.2887 19.2419 38.3242 19.6543 38.3242C19.9559 38.3242 20.0357 38.3176 20.1953 38.2732C20.5412 38.1779 20.8405 38.0138 21.1 37.7721L21.2308 37.6524L21.3727 37.6879C21.5567 37.7322 22.1465 37.7366 22.3372 37.6967C22.6764 37.6213 23.0068 37.4861 23.2529 37.3198L23.386 37.2289L23.4813 37.3508C23.6764 37.6058 24.0157 37.8298 24.366 37.9406C24.5101 37.985 24.5766 37.9916 24.8649 37.9916C25.2241 37.9894 25.3283 37.9695 25.6032 37.8453C25.8494 37.7344 26.0777 37.546 26.3105 37.2644L26.3615 37.2045H29.7296C33.3881 37.2045 33.2528 37.2089 33.6009 37.0825C34.0289 36.9251 34.4191 36.6236 34.6741 36.2444C34.7872 36.0781 34.9357 35.7478 34.9911 35.5415L35.0421 35.3531L35.0466 26.7545L35.0532 18.1582H35.3171C35.6275 18.1582 35.7783 18.1205 35.969 17.9941C36.1042 17.9032 36.2195 17.7635 36.2993 17.5905L36.3503 17.4819V15.9076V14.3334L36.2816 14.1893C36.1796 13.9786 36.0577 13.85 35.8559 13.7525L35.6874 13.6682L32.7162 13.6571L29.7429 13.646L29.7318 12.4487L29.7185 11.2514L29.6586 11.074C29.479 10.564 29.0577 10.1716 28.5478 10.043C28.377 9.99862 28.2972 9.99862 25.3438 10.0008C22.4414 10.0008 22.3084 10.0031 22.1532 10.043ZM28.326 10.6438C28.7207 10.717 29.0289 11.0385 29.091 11.4443C29.1021 11.5241 29.1087 12.023 29.1065 12.615L29.0999 13.646L28.5522 13.6527L28.0023 13.6571V13.0208C28.0023 12.3245 27.9846 12.1915 27.8759 11.9897C27.8072 11.8633 27.6254 11.686 27.4968 11.6194C27.2795 11.5086 27.2529 11.5064 25.3527 11.5064C23.4214 11.5064 23.417 11.5064 23.1864 11.6327C22.9625 11.7547 22.7762 12.0163 22.7252 12.2824C22.7141 12.3467 22.703 12.6815 22.703 13.0296V13.6571L22.1554 13.6527L21.6055 13.646L21.5988 12.6039C21.5944 11.921 21.6011 11.513 21.6166 11.4199C21.6831 11.0252 21.9957 10.7081 22.3749 10.6438C22.5545 10.615 28.1642 10.6128 28.326 10.6438ZM27.2152 12.1937C27.3527 12.278 27.3593 12.3179 27.3593 13.023V13.6571H25.3527H23.3461V13.0119C23.3461 12.3955 23.3483 12.3622 23.3926 12.2913C23.4835 12.1427 23.3749 12.1516 25.3505 12.1494C27.111 12.1494 27.1442 12.1494 27.2152 12.1937ZM35.561 14.3179C35.6031 14.3378 35.6585 14.3844 35.6829 14.4176C35.7295 14.4797 35.7295 14.4997 35.7295 15.9032V17.3267L35.6807 17.3954C35.6541 17.4331 35.5987 17.4797 35.5588 17.4952C35.4967 17.5218 33.9246 17.5262 25.3416 17.5262H15.1976L15.12 17.4819C14.9581 17.3866 14.9626 17.4486 14.9692 15.881C14.9759 14.5041 14.9759 14.4797 15.0224 14.4176C15.0468 14.3844 15.1023 14.3378 15.1444 14.3179C15.2153 14.2802 15.7497 14.2779 25.3527 14.2779C34.9557 14.2779 35.49 14.2802 35.561 14.3179ZM34.4102 26.6902V35.2223L34.3637 35.3996C34.2218 35.9384 33.8005 36.3686 33.2462 36.5327C33.122 36.5704 32.9047 36.5726 29.8626 36.5792L26.6121 36.5859L26.6232 36.3132C26.6343 35.9739 26.5855 35.7367 26.4391 35.4418C26.1709 34.9052 25.6675 34.5549 25.0489 34.4773C24.805 34.4484 24.4569 34.4906 24.2263 34.5793C24.2064 34.5859 24.1864 34.5593 24.1687 34.495C24.1265 34.3531 23.9758 34.0648 23.8582 33.9008C23.5168 33.4196 22.9403 33.0516 22.3594 32.9451L22.2152 32.9185L22.2108 26.8632L22.2042 20.8078L22.1421 20.6836C22.0711 20.5351 21.9004 20.3688 21.7541 20.3023C21.6521 20.2535 21.6321 20.2535 20.5523 20.2535H19.4548L19.3062 20.3267C19.1288 20.4131 19.0002 20.5506 18.9293 20.728L18.8783 20.8521L18.8738 23.147C18.8716 24.4086 18.8694 25.4508 18.8672 25.4618C18.8672 25.4729 18.825 25.4419 18.774 25.3953C18.3993 25.0517 17.7497 24.6525 17.1776 24.4153C16.9404 24.3155 16.5302 24.1803 16.4016 24.1559C16.355 24.147 16.3173 24.1337 16.3173 24.1271C16.3173 24.1204 16.4127 24.0273 16.528 23.9186C17.0801 23.3998 17.4171 22.739 17.5634 21.8943C17.6255 21.5284 17.6122 20.8654 17.539 20.6371C17.4503 20.3599 17.273 20.167 17.0446 20.0983C16.9005 20.0561 16.6566 20.0561 16.4836 20.0983C16.4104 20.116 16.3373 20.1293 16.324 20.1315C16.3018 20.1315 16.2951 19.9209 16.2951 19.1448V18.1582H25.3527H34.4102V26.6902ZM13.579 20.8189C14.2841 21.0229 14.3994 21.0428 14.8317 21.0561C15.1865 21.0672 15.2442 21.0628 15.4969 21.0096C15.6499 20.9785 15.8983 20.9164 16.0512 20.8721C16.7475 20.6681 16.8162 20.6548 16.8761 20.7235C16.9736 20.8344 17.0047 21.2468 16.9515 21.6814C16.8938 22.1337 16.7608 22.5373 16.5634 22.8787C16.4193 23.1248 16.0956 23.5084 16.0623 23.4752C16.0535 23.4685 16.0734 23.3843 16.1045 23.2889C16.2597 22.8056 16.3816 22.1005 16.3373 21.9386C16.3107 21.8433 16.2198 21.7568 16.1222 21.728C15.9559 21.6836 15.7563 21.8011 15.732 21.9563C15.7253 21.9963 15.7054 22.1426 15.6854 22.2823C15.5901 22.963 15.3838 23.5328 15.1377 23.8011C14.9958 23.9563 14.9315 23.9785 14.8051 23.9164C14.5058 23.7634 14.222 23.0339 14.0978 22.096C14.0757 21.9231 14.0624 21.8898 14.0025 21.8233C13.8318 21.6371 13.5125 21.7235 13.4659 21.9696C13.4371 22.1138 13.5701 22.861 13.6876 23.2357C13.783 23.5373 13.7852 23.5262 13.6566 23.402C13.3839 23.1426 13.1289 22.7191 12.9958 22.3045C12.8806 21.9497 12.8495 21.7391 12.8473 21.3067C12.8473 20.9098 12.865 20.7923 12.9426 20.7169C12.9914 20.6659 13.1045 20.6836 13.579 20.8189ZM21.5456 20.912C21.5656 20.932 21.5722 22.3 21.5722 26.9297V32.9207L21.5235 32.934C21.4946 32.9407 21.4503 32.9473 21.4259 32.9473C21.3838 32.9473 21.0645 33.0338 20.9736 33.0671C20.9514 33.0759 20.927 33.0582 20.9026 33.0094C20.8672 32.9429 20.8627 32.7833 20.8561 31.1403C20.8472 29.2622 20.8472 29.2489 20.7408 28.7234C20.6343 28.1957 20.4991 27.8055 20.2419 27.2822C20.0645 26.9208 19.8029 26.4973 19.6144 26.2689L19.5102 26.1403V23.5528C19.5102 21.1781 19.5124 20.963 19.5479 20.9253C19.5811 20.8876 19.641 20.8854 20.5523 20.8854C21.2751 20.8854 21.5257 20.8921 21.5456 20.912ZM15.6521 24.6415C15.9559 24.6902 16.1643 24.7368 16.406 24.8078C18.457 25.4197 19.9559 27.2068 20.1975 29.3221C20.2108 29.4374 20.2197 30.1181 20.2197 30.9341V32.3465L20.1266 32.3066C19.4171 32.0028 18.59 32.2489 18.1665 32.8853C17.8295 33.3908 17.8051 33.9872 18.0956 34.5482L18.1843 34.7189L18.0645 34.8586C17.8273 35.1402 17.6787 35.4396 17.6011 35.7921C17.5634 35.9584 17.5568 36.0515 17.5634 36.291L17.5745 36.5837H14.2198C10.5103 36.5837 10.6633 36.5903 10.364 36.4418C9.92937 36.2267 9.6633 35.8475 9.59678 35.3442C9.58126 35.2333 9.57682 34.1801 9.58347 32.3154C9.59234 29.2046 9.58791 29.3177 9.72094 28.7279C10.0713 27.1603 11.1489 25.8166 12.6256 25.1071C13.1267 24.8676 13.7253 24.6925 14.2442 24.6348C14.3661 24.6215 14.4969 24.606 14.5324 24.6015C14.6721 24.5816 15.4526 24.6104 15.6521 24.6415ZM19.7563 32.8453C20.0911 32.9473 20.3173 33.1779 20.4193 33.5261C20.5213 33.8609 20.7075 33.9362 21.0068 33.7633C21.6299 33.3974 22.468 33.4706 23.0246 33.9385C23.3549 34.2156 23.5545 34.5549 23.6432 34.9872C23.6875 35.1979 23.7053 35.2444 23.7629 35.3043C23.8183 35.3597 23.8538 35.373 23.9536 35.3819C24.0667 35.3908 24.0866 35.3841 24.2197 35.3021C24.7075 34.9917 25.2729 35.0493 25.6653 35.444C25.825 35.6036 25.9247 35.7921 25.9735 36.0183C26.0134 36.2112 26.0134 36.2688 25.9735 36.4573C25.887 36.8675 25.5921 37.1934 25.1864 37.3287C25.0267 37.3797 24.7119 37.3819 24.5412 37.3287C24.2263 37.2333 23.9802 37.0116 23.8183 36.6768C23.7075 36.4418 23.641 36.3841 23.4835 36.3841C23.3594 36.3841 23.2951 36.4196 23.1465 36.5726C22.6853 37.0515 21.9514 37.2156 21.2596 36.9939C21.0534 36.9273 21.0068 36.9473 20.7341 37.2245C20.5412 37.4174 20.4658 37.4772 20.3306 37.5437C20.0911 37.659 19.9182 37.6989 19.6432 37.6989C19.2419 37.6967 18.896 37.5482 18.6078 37.2555C18.0557 36.6967 18.0446 35.8187 18.5834 35.24C18.6676 35.1513 18.7718 35.056 18.814 35.0294C18.8561 35.005 18.9093 34.9451 18.9337 34.8963C19.0157 34.7389 18.9869 34.6369 18.8095 34.4507C18.7386 34.3775 18.6588 34.26 18.6166 34.1735C18.5501 34.0316 18.5457 34.0094 18.5457 33.7677C18.5457 33.5327 18.5523 33.5039 18.6122 33.3797C18.6831 33.2312 18.8539 33.0383 18.9891 32.9518C19.1887 32.8232 19.5301 32.7766 19.7563 32.8453Z" fill="white"/>
<path d="M24.2777 20.2621C24.0294 20.3131 23.7966 20.5237 23.7234 20.7698C23.6791 20.9184 23.6791 20.9539 23.6835 27.0048L23.6902 33.0912L23.7412 33.1998C23.8166 33.3661 23.9274 33.4859 24.0826 33.5701L24.2223 33.6455H25.3531H26.4839L26.6014 33.5834C26.7566 33.5014 26.8742 33.3817 26.9518 33.222L27.0161 33.0912V26.9604V20.8297L26.9584 20.7055C26.8786 20.5348 26.7566 20.4084 26.597 20.3242L26.4618 20.2532L25.4086 20.2488C24.8298 20.2466 24.3199 20.2532 24.2777 20.2621ZM26.3442 20.9228C26.3819 20.9583 26.3841 21.1734 26.3841 26.9449C26.3841 32.4859 26.3819 32.936 26.3465 32.9737C26.3132 33.0114 26.2533 33.0136 25.3509 33.0136C24.5083 33.0136 24.3886 33.0092 24.3576 32.9781C24.3265 32.9471 24.3221 32.3706 24.3221 26.956C24.3221 21.4128 24.3243 20.9627 24.3598 20.925C24.393 20.8873 24.4529 20.8851 25.3487 20.8851C26.2068 20.8851 26.3065 20.8896 26.3442 20.9228Z" fill="white"/>
<path d="M29.0734 20.264C28.8606 20.3083 28.6588 20.4724 28.5613 20.6808L28.5014 20.8072L28.4947 26.9047C28.4903 31.5077 28.4947 33.0265 28.5147 33.1019C28.5524 33.2461 28.6588 33.4035 28.783 33.5033C28.9759 33.654 28.9914 33.6562 30.1666 33.6562C31.171 33.6562 31.222 33.654 31.3373 33.6097C31.4903 33.5543 31.6676 33.3968 31.7453 33.2483L31.8051 33.1352L31.8118 26.9889L31.8162 20.8427L31.7719 20.7207C31.7098 20.5588 31.5546 20.3948 31.3838 20.3149L31.2508 20.2529L30.2087 20.2484C29.6366 20.2462 29.1244 20.2551 29.0734 20.264ZM31.1555 20.9225C31.1932 20.958 31.1954 21.173 31.1954 26.949C31.1954 32.0842 31.1909 32.9445 31.1643 32.9822C31.1333 33.0221 31.0934 33.0243 30.1799 33.031C29.2952 33.0354 29.2242 33.0332 29.1799 32.9977L29.1311 32.9578V26.9512C29.1333 22.5189 29.14 20.938 29.1577 20.9158C29.1777 20.8914 29.3617 20.8848 30.1488 20.8848C31.0158 20.8848 31.1178 20.8892 31.1555 20.9225Z" fill="white"/>
<path d="M14.4557 27.0292C13.5821 27.1423 12.7085 27.5835 12.1475 28.1977C10.9702 29.4859 10.7994 31.3529 11.724 32.8141C11.9214 33.1267 12.2806 33.5214 12.5821 33.7564C13.4092 34.4016 14.4823 34.6788 15.5089 34.5103C17.2428 34.2265 18.551 32.7919 18.6685 31.0447C18.8038 29.0203 17.3626 27.2798 15.3426 27.0292C15.1275 27.0004 14.6664 27.0026 14.4557 27.0292ZM15.4291 27.6811C15.9923 27.7809 16.4668 27.9982 16.9036 28.3596C17.9701 29.242 18.3359 30.7121 17.8038 31.9915C17.4623 32.8185 16.7129 33.5081 15.8637 33.7741C15.4934 33.8917 15.3581 33.9116 14.9103 33.9116C14.4624 33.9116 14.3271 33.8917 13.9568 33.7764C13.0411 33.4881 12.2894 32.7631 11.9524 31.8407C11.815 31.4682 11.7861 31.2908 11.7861 30.7963C11.7839 30.3108 11.7994 30.191 11.9214 29.8097C12.1719 29.0114 12.8127 28.293 13.5976 27.925C13.9081 27.7809 14.2429 27.6922 14.6774 27.639C14.8105 27.6234 15.234 27.6456 15.4291 27.6811Z" fill="white"/>
<path d="M14.4545 28.176C14.2438 28.2824 14.2195 28.5773 14.4124 28.7148C14.4478 28.7392 14.4767 28.768 14.4767 28.7791C14.4767 28.788 14.4057 28.819 14.3214 28.8434C13.756 29.0163 13.2527 29.4864 13.0354 30.0474C12.9445 30.2802 12.8957 30.5463 12.9068 30.7525C12.9135 30.9099 12.9201 30.9343 12.98 30.9964C13.1108 31.1338 13.3126 31.1361 13.4434 30.9986C13.4966 30.9432 13.5077 30.9077 13.5254 30.7369C13.5787 30.2248 13.8248 29.8146 14.215 29.5818C14.3503 29.5019 14.603 29.4066 14.623 29.4288C14.6319 29.4354 14.5964 29.4886 14.5454 29.5463C14.3835 29.7303 14.3724 29.9121 14.5188 30.0518C14.603 30.1316 14.7671 30.156 14.8691 30.1028C14.9356 30.0673 15.0886 29.8966 15.4456 29.4509C15.6585 29.1849 15.6895 29.1117 15.6496 28.9698C15.6385 28.9277 15.5919 28.8611 15.5454 28.819C15.3724 28.666 14.8048 28.2115 14.7361 28.1738C14.6474 28.125 14.552 28.125 14.4545 28.176Z" fill="white"/>
<path d="M16.5523 30.4861C16.4148 30.5282 16.3394 30.6568 16.3394 30.8563C16.3394 30.965 16.2884 31.1978 16.2374 31.3198C16.1266 31.588 15.8516 31.8852 15.59 32.0226C15.4458 32.098 15.2751 32.1579 15.2574 32.1379C15.2529 32.1335 15.2973 32.0625 15.3549 31.9805C15.4835 31.8009 15.5079 31.6546 15.4303 31.5326C15.3705 31.4373 15.213 31.3641 15.1133 31.3863C14.9869 31.4129 14.9248 31.4794 14.6277 31.9118C14.315 32.3641 14.2685 32.4594 14.2973 32.5659C14.335 32.6922 14.3705 32.7255 14.825 33.0404L15.2862 33.3574H15.4126C15.5301 33.3574 15.5478 33.3508 15.621 33.2776C15.7585 33.1379 15.754 32.9494 15.6077 32.8142L15.5212 32.7344L15.6809 32.6723C16.0157 32.5415 16.3838 32.2554 16.5966 31.9583C16.805 31.6656 16.9403 31.2954 16.9691 30.9229C16.9891 30.6923 16.9403 30.5703 16.8006 30.5082C16.6964 30.4617 16.652 30.4572 16.5523 30.4861Z" fill="white"/>
</g>
<defs>
<clipPath id="clip0_68_126">
<rect width="48" height="48" fill="white"/>
</clipPath>
</defs>
</svg>
