<svg width="48" height="48" viewBox="0 0 48 48" fill="none" xmlns="http://www.w3.org/2000/svg">
<circle cx="24" cy="24" r="24" fill="#ED3438"/>
<mask id="mask0_0_1074" style="mask-type:alpha" maskUnits="userSpaceOnUse" x="12" y="12" width="24" height="24">
<rect x="12" y="12" width="24" height="24" fill="#D9D9D9"/>
</mask>
<g mask="url(#mask0_0_1074)">
<path d="M24.025 28.5C25.125 28.5 26.0625 28.1167 26.8375 27.35C27.6125 26.5833 28 25.65 28 24.55C28 24.0167 27.9 23.5125 27.7 23.0375C27.5 22.5625 27.2083 22.1417 26.825 21.775L24 19L21.175 21.775C20.7917 22.1417 20.5 22.5625 20.3 23.0375C20.1 23.5125 20 24.0167 20 24.55C20 25.65 20.3958 26.5833 21.1875 27.35C21.9792 28.1167 22.925 28.5 24.025 28.5ZM22 24.5C22 24.25 22.05 24.0167 22.15 23.8C22.25 23.5833 22.3917 23.3833 22.575 23.2L24 21.8L25.425 23.2C25.6083 23.3833 25.75 23.5833 25.85 23.8C25.95 24.0167 26 24.25 26 24.5H22ZM16 32V20L24 14L32 20V32H16ZM18 30H30V21L24 16.5L18 21V30Z" fill="white"/>
</g>
</svg>
