<svg version="1.2" xmlns="http://www.w3.org/2000/svg" viewBox="0 0 1552 1923" width="1552" height="1923">
	<title>logo-red (1)</title>
	<style>
		.s0 { fill: #000000 } 
		.s1 { fill: #ed3438 } 
	</style>
	<g>
		<g id="Layer_1-2">
			<path fill-rule="evenodd" class="s0" d="m1317.7 1666.5h51l64.9 87.7 61.4-87.7h56.1l-91.2 126.3 91.2 129.8h-56.1l-61.4-87.7-64.9 87.7h-51l89.6-129.8zm-78.9 0l98.2 207-36.8 49.1-31.6-64.9h-87.7l-31.7 64.9h-52.5l110.5-256.1zm-38.7 142.1h52.6l-26.3-73.7zm-398.3-142.1h65l68.4 194.7 73.7-194.7h64.9v256.1h-50.9v-191.2l-64.9 191.2h-36.8l-70.3-191.2v191.2h-49.1zm-103.5-0.4l21 3.7 12.3 5.4 10.5 6.9 8.8 8.9 7 5.3 7 12.3 5.3 12.3 1.9 14 1.8 12.3-1.8 10.5-1.9 12.3-5.3 12.3-7 10.5-24.6 21-12.4 7-13.9 5.3 66.7 96.5h-57.9l-68.4-100v100h-51v-256.1h73.8zm-50.8 117.9h29.8l19.3-1.9 14-7 8.8-10.4 3.5-17.5-3.5-15.8-8.8-10.5-15.8-7-21.2-1.8h-26.3zm-89.7-117.5v45.6h-94.7v61.4h87.7v42.1h-87.7v57.9h91.2v49.1h-140.3v-256.1zm-331.5 0v103.5h91.2v-103.5h49.1v256.1h-49.1v-110.5h-91.2v110.5h-51v-256.1zm-222.8 0h149.1v45.6h-45.6v210.5h-49.1v-210.5h-54.4z"/>
			<path fill-rule="evenodd" class="s1" d="m735.2 145.6v1359.5l-359.7 3.5v-770.1h-375.5v-738.5l570.2 3.5h1.9 5.1 5.4 6.9l29.8 3.5 26.3 7 24.7 12.3 21.1 17.6 17.5 21 14 24.6 8.8 26.3z"/>
			<path fill-rule="evenodd" class="s1" d="m798.4 142.1v870.9 495.6h359.7v-770.1h379v-738.5h-579.1-3.4-3.5-1.9-1.6l-30 3.5-26.3 7-26.3 12.3-21 17.6-17.6 21-14 24.6-10.5 26.3z"/>
		</g>
	</g>
</svg>